HIERARCHY
ROOT mixamorig:Hips
{
	OFFSET -0.000008 104.274872 1.554316
	CHANNELS 6 Xposition Yposition Zposition Xrotation Yrotation Zrotation
	JOINT mixamorig:Spine
	{
		OFFSET -0.000005 10.181595 0.131519
		CHANNELS 6 Xposition Yposition Zposition Xrotation Yrotation Zrotation
		JOINT mixamorig:Spine1
		{
			OFFSET -0.000000 9.893959 -1.470707
			CHANNELS 6 Xposition Yposition Zposition Xrotation Yrotation Zrotation
			JOINT mixamorig:Spine2
			{
				OFFSET -0.000000 9.220757 -1.370641
				CHANNELS 6 Xposition Yposition Zposition Xrotation Yrotation Zrotation
				JOINT mixamorig:Neck
				{
					OFFSET 0.000001 16.740417 -2.049036
					CHANNELS 6 Xposition Yposition Zposition Xrotation Yrotation Zrotation
					JOINT mixamorig:Head
					{
						OFFSET 0.000000 9.617874 1.685006
						CHANNELS 6 Xposition Yposition Zposition Xrotation Yrotation Zrotation
						JOINT mixamorig:HeadTop_End
						{
							OFFSET 0.000002 22.037354 7.501101
							CHANNELS 6 Xposition Yposition Zposition Xrotation Yrotation Zrotation
							End Site
							{
								OFFSET 0.000168 2310.654297 -282.823242
							}
						}
					}
				}
				JOINT mixamorig:RightShoulder
				{
					OFFSET -4.569970 11.014908 -2.160885
					CHANNELS 6 Xposition Yposition Zposition Xrotation Yrotation Zrotation
					JOINT mixamorig:RightArm
					{
						OFFSET -10.592851 -0.524811 -2.232101
						CHANNELS 6 Xposition Yposition Zposition Xrotation Yrotation Zrotation
						JOINT mixamorig:RightForeArm
						{
							OFFSET -27.841511 0.000031 -0.000004
							CHANNELS 6 Xposition Yposition Zposition Xrotation Yrotation Zrotation
							JOINT mixamorig:RightHand
							{
								OFFSET -28.328831 -0.000015 0.000015
								CHANNELS 6 Xposition Yposition Zposition Xrotation Yrotation Zrotation
								JOINT mixamorig:RightHandThumb1
								{
									OFFSET -2.464806 -1.573990 2.681852
									CHANNELS 6 Xposition Yposition Zposition Xrotation Yrotation Zrotation
									JOINT mixamorig:RightHandThumb2
									{
										OFFSET -3.215179 -1.872803 1.924282
										CHANNELS 6 Xposition Yposition Zposition Xrotation Yrotation Zrotation
										JOINT mixamorig:RightHandThumb3
										{
											OFFSET -2.654831 -1.527969 1.512609
											CHANNELS 6 Xposition Yposition Zposition Xrotation Yrotation Zrotation
											JOINT mixamorig:RightHandThumb4
											{
												OFFSET -2.018814 -1.152008 1.108052
												CHANNELS 6 Xposition Yposition Zposition Xrotation Yrotation Zrotation
												End Site
												{
													OFFSET -188.809540 -114.533607 132.431396
												}
											}
										}
									}
								}
								JOINT mixamorig:RightHandIndex1
								{
									OFFSET -9.108284 -0.517868 2.259835
									CHANNELS 6 Xposition Yposition Zposition Xrotation Yrotation Zrotation
									JOINT mixamorig:RightHandIndex2
									{
										OFFSET -3.699989 0.000000 0.001215
										CHANNELS 6 Xposition Yposition Zposition Xrotation Yrotation Zrotation
										JOINT mixamorig:RightHandIndex3
										{
											OFFSET -2.850006 0.000031 -0.000522
											CHANNELS 6 Xposition Yposition Zposition Xrotation Yrotation Zrotation
											JOINT mixamorig:RightHandIndex4
											{
												OFFSET -2.772186 -0.000015 -0.000020
												CHANNELS 6 Xposition Yposition Zposition Xrotation Yrotation Zrotation
												End Site
												{
													OFFSET -277.218445 0.000000 -0.050231
												}
											}
										}
									}
								}
								JOINT mixamorig:RightHandMiddle1
								{
									OFFSET -9.532516 -0.000031 -0.000023
									CHANNELS 6 Xposition Yposition Zposition Xrotation Yrotation Zrotation
									JOINT mixamorig:RightHandMiddle2
									{
										OFFSET -3.700005 -0.000015 0.003713
										CHANNELS 6 Xposition Yposition Zposition Xrotation Yrotation Zrotation
										JOINT mixamorig:RightHandMiddle3
										{
											OFFSET -2.949974 0.000015 -0.002054
											CHANNELS 6 Xposition Yposition Zposition Xrotation Yrotation Zrotation
											JOINT mixamorig:RightHandMiddle4
											{
												OFFSET -2.946640 0.000000 -0.000156
												CHANNELS 6 Xposition Yposition Zposition Xrotation Yrotation Zrotation
												End Site
												{
													OFFSET -294.664337 0.000000 -0.113670
												}
											}
										}
									}
								}
								JOINT mixamorig:RightHandRing1
								{
									OFFSET -9.103600 -0.043076 -1.865134
									CHANNELS 6 Xposition Yposition Zposition Xrotation Yrotation Zrotation
									JOINT mixamorig:RightHandRing2
									{
										OFFSET -3.379288 0.000000 -0.001055
										CHANNELS 6 Xposition Yposition Zposition Xrotation Yrotation Zrotation
										JOINT mixamorig:RightHandRing3
										{
											OFFSET -2.889687 -0.000015 0.000379
											CHANNELS 6 Xposition Yposition Zposition Xrotation Yrotation Zrotation
											JOINT mixamorig:RightHandRing4
											{
												OFFSET -2.638809 -0.000015 0.000941
												CHANNELS 6 Xposition Yposition Zposition Xrotation Yrotation Zrotation
												End Site
												{
													OFFSET -263.880371 0.000000 0.516020
												}
											}
										}
									}
								}
								JOINT mixamorig:RightHandPinky1
								{
									OFFSET -8.076683 -0.486710 -3.806280
									CHANNELS 6 Xposition Yposition Zposition Xrotation Yrotation Zrotation
									JOINT mixamorig:RightHandPinky2
									{
										OFFSET -3.600014 -0.000015 -0.003747
										CHANNELS 6 Xposition Yposition Zposition Xrotation Yrotation Zrotation
										JOINT mixamorig:RightHandPinky3
										{
											OFFSET -2.099983 0.000000 -0.005739
											CHANNELS 6 Xposition Yposition Zposition Xrotation Yrotation Zrotation
											JOINT mixamorig:RightHandPinky4
											{
												OFFSET -2.115768 -0.000031 -0.003680
												CHANNELS 6 Xposition Yposition Zposition Xrotation Yrotation Zrotation
												End Site
												{
													OFFSET -211.577087 0.000000 -0.350686
												}
											}
										}
									}
								}
							}
						}
					}
				}
				JOINT mixamorig:LeftShoulder
				{
					OFFSET 4.570447 11.014725 -2.160855
					CHANNELS 6 Xposition Yposition Zposition Xrotation Yrotation Zrotation
					JOINT mixamorig:LeftArm
					{
						OFFSET 10.592371 -0.524597 -2.232119
						CHANNELS 6 Xposition Yposition Zposition Xrotation Yrotation Zrotation
						JOINT mixamorig:LeftForeArm
						{
							OFFSET 27.841532 -0.000031 0.000026
							CHANNELS 6 Xposition Yposition Zposition Xrotation Yrotation Zrotation
							JOINT mixamorig:LeftHand
							{
								OFFSET 28.328846 -0.000061 0.000022
								CHANNELS 6 Xposition Yposition Zposition Xrotation Yrotation Zrotation
								JOINT mixamorig:LeftHandThumb1
								{
									OFFSET 2.466141 -1.576172 2.681732
									CHANNELS 6 Xposition Yposition Zposition Xrotation Yrotation Zrotation
									JOINT mixamorig:LeftHandThumb2
									{
										OFFSET 3.217812 -1.872070 1.916482
										CHANNELS 6 Xposition Yposition Zposition Xrotation Yrotation Zrotation
										JOINT mixamorig:LeftHandThumb3
										{
											OFFSET 2.656029 -1.528778 1.514513
											CHANNELS 6 Xposition Yposition Zposition Xrotation Yrotation Zrotation
											JOINT mixamorig:LeftHandThumb4
											{
												OFFSET 2.020889 -1.154053 1.115139
												CHANNELS 6 Xposition Yposition Zposition Xrotation Yrotation Zrotation
												End Site
												{
													OFFSET 190.885437 -115.081749 130.048782
												}
											}
										}
									}
								}
								JOINT mixamorig:LeftHandIndex1
								{
									OFFSET 9.109314 -0.518021 2.259871
									CHANNELS 6 Xposition Yposition Zposition Xrotation Yrotation Zrotation
									JOINT mixamorig:LeftHandIndex2
									{
										OFFSET 3.699989 0.000000 -0.000322
										CHANNELS 6 Xposition Yposition Zposition Xrotation Yrotation Zrotation
										JOINT mixamorig:LeftHandIndex3
										{
											OFFSET 2.850006 0.000000 0.000352
											CHANNELS 6 Xposition Yposition Zposition Xrotation Yrotation Zrotation
											JOINT mixamorig:LeftHandIndex4
											{
												OFFSET 2.774864 -0.000031 -0.000027
												CHANNELS 6 Xposition Yposition Zposition Xrotation Yrotation Zrotation
												End Site
												{
													OFFSET 277.486267 0.000000 -0.009857
												}
											}
										}
									}
								}
								JOINT mixamorig:LeftHandMiddle1
								{
									OFFSET 9.533394 0.000061 0.000044
									CHANNELS 6 Xposition Yposition Zposition Xrotation Yrotation Zrotation
									JOINT mixamorig:LeftHandMiddle2
									{
										OFFSET 3.699989 -0.000015 -0.000231
										CHANNELS 6 Xposition Yposition Zposition Xrotation Yrotation Zrotation
										JOINT mixamorig:LeftHandMiddle3
										{
											OFFSET 2.949997 -0.000015 -0.000059
											CHANNELS 6 Xposition Yposition Zposition Xrotation Yrotation Zrotation
											JOINT mixamorig:LeftHandMiddle4
											{
												OFFSET 2.952896 0.000031 0.000063
												CHANNELS 6 Xposition Yposition Zposition Xrotation Yrotation Zrotation
												End Site
												{
													OFFSET 295.289337 0.000000 0.022810
												}
											}
										}
									}
								}
								JOINT mixamorig:LeftHandRing1
								{
									OFFSET 9.104523 -0.042999 -1.865074
									CHANNELS 6 Xposition Yposition Zposition Xrotation Yrotation Zrotation
									JOINT mixamorig:LeftHandRing2
									{
										OFFSET 3.150009 -0.000031 0.000043
										CHANNELS 6 Xposition Yposition Zposition Xrotation Yrotation Zrotation
										JOINT mixamorig:LeftHandRing3
										{
											OFFSET 2.949982 -0.000015 0.000040
											CHANNELS 6 Xposition Yposition Zposition Xrotation Yrotation Zrotation
											JOINT mixamorig:LeftHandRing4
											{
												OFFSET 2.644348 0.000000 0.000057
												CHANNELS 6 Xposition Yposition Zposition Xrotation Yrotation Zrotation
												End Site
												{
													OFFSET 264.434631 0.000000 0.012105
												}
											}
										}
									}
								}
								JOINT mixamorig:LeftHandPinky1
								{
									OFFSET 8.077789 -0.486847 -3.806259
									CHANNELS 6 Xposition Yposition Zposition Xrotation Yrotation Zrotation
									JOINT mixamorig:LeftHandPinky2
									{
										OFFSET 3.599953 0.000031 0.014727
										CHANNELS 6 Xposition Yposition Zposition Xrotation Yrotation Zrotation
										JOINT mixamorig:LeftHandPinky3
										{
											OFFSET 2.100021 0.000015 0.007705
											CHANNELS 6 Xposition Yposition Zposition Xrotation Yrotation Zrotation
											JOINT mixamorig:LeftHandPinky4
											{
												OFFSET 2.125504 0.000031 0.007517
												CHANNELS 6 Xposition Yposition Zposition Xrotation Yrotation Zrotation
												End Site
												{
													OFFSET 212.550781 0.000000 0.625752
												}
											}
										}
									}
								}
							}
						}
					}
				}
			}
		}
	}
	JOINT mixamorig:RightUpLeg
	{
		OFFSET -8.207787 -6.751648 -1.599560
		CHANNELS 6 Xposition Yposition Zposition Xrotation Yrotation Zrotation
		JOINT mixamorig:RightLeg
		{
			OFFSET -0.000002 -44.370117 0.345942
			CHANNELS 6 Xposition Yposition Zposition Xrotation Yrotation Zrotation
			JOINT mixamorig:RightFoot
			{
				OFFSET 0.000003 -44.423679 -3.043532
				CHANNELS 6 Xposition Yposition Zposition Xrotation Yrotation Zrotation
				JOINT mixamorig:RightToeBase
				{
					OFFSET -0.000002 -8.728671 10.710558
					CHANNELS 6 Xposition Yposition Zposition Xrotation Yrotation Zrotation
					JOINT mixamorig:RightToe_End
					{
						OFFSET -0.000001 -0.000679 9.278119
						CHANNELS 6 Xposition Yposition Zposition Xrotation Yrotation Zrotation
						End Site
						{
							OFFSET 0.000000 -0.067690 927.812134
						}
					}
				}
			}
		}
	}
	JOINT mixamorig:LeftUpLeg
	{
		OFFSET 8.207793 -6.751686 -1.599556
		CHANNELS 6 Xposition Yposition Zposition Xrotation Yrotation Zrotation
		JOINT mixamorig:LeftLeg
		{
			OFFSET -0.000004 -44.370014 0.346954
			CHANNELS 6 Xposition Yposition Zposition Xrotation Yrotation Zrotation
			JOINT mixamorig:LeftFoot
			{
				OFFSET -0.000001 -44.423672 -3.044401
				CHANNELS 6 Xposition Yposition Zposition Xrotation Yrotation Zrotation
				JOINT mixamorig:LeftToeBase
				{
					OFFSET -0.000002 -8.728669 10.710558
					CHANNELS 6 Xposition Yposition Zposition Xrotation Yrotation Zrotation
					JOINT mixamorig:LeftToe_End
					{
						OFFSET -0.000003 -0.000679 9.278133
						CHANNELS 6 Xposition Yposition Zposition Xrotation Yrotation Zrotation
						End Site
						{
							OFFSET 0.000000 -0.068021 927.813477
						}
					}
				}
			}
		}
	}
}
MOTION
Frames: 3
Frame Time: 0.033333
0.000006 104.270477 1.554256 0.000010 0.000003 -0.000113 -0.000005 10.181587 0.131522 0.000001 -0.000003 0.000084 -0.000000 9.893967 -1.470711 0.000001 0.000000 -0.000000 -0.000000 9.220802 -1.370642 0.000000 -0.000000 -0.000000 0.000001 16.740433 -2.049030 0.000000 -0.000000 -0.000000 0.000000 9.617859 1.685014 0.000000 0.000000 0.000000 0.000002 22.037384 7.501101 0.000000 -0.000000 0.000000 -4.569968 11.014880 -2.160881 0.000008 0.000001 -0.000038 -10.592872 -0.524680 -2.232004 77.398870 9.666523 -7.750783 -27.841511 0.000011 0.000565 -48.096177 113.398926 68.377543 -28.328850 0.000021 0.000015 -0.000319 -0.000046 0.000006 -2.464422 -1.573738 2.682312 -51.437110 -167.405915 -19.649577 -3.215254 -1.872532 1.924622 149.663406 32.924251 19.137230 -2.654961 -1.527877 1.513066 147.358463 27.441899 -31.067368 -2.018835 -1.152000 1.108056 -0.000004 -0.000002 0.000005 -9.108376 -0.517551 2.260097 94.614396 15.152657 -16.458186 -3.700044 0.000315 0.001480 91.798193 12.930033 -13.314521 -2.850080 0.000370 -0.000279 90.653460 10.604203 -10.724204 -2.772192 0.000000 -0.000020 0.000000 -0.000001 -0.000001 -9.532583 0.000280 0.000214 89.389008 14.090378 -14.080560 -3.700055 0.000332 0.003952 89.279254 11.055379 -10.825629 -2.950054 0.000346 -0.001810 91.490070 10.695518 -10.968448 -2.946625 0.000001 -0.000155 0.000001 0.000002 -0.000000 -9.103693 -0.042748 -1.864889 88.070215 16.555125 -15.970932 -3.379336 0.000319 -0.000840 87.726560 8.434096 -8.123446 -2.889738 0.000351 0.000613 94.188807 5.746993 -6.230647 -2.638822 -0.000003 0.000946 -0.000003 0.000002 -0.000001 -8.076752 -0.486412 -3.806048 81.945051 18.017284 -15.545709 -3.600027 0.000258 -0.003565 81.380475 6.822903 -5.569000 -2.099987 0.000338 -0.005548 84.474373 2.834130 -2.382213 -2.115759 -0.000056 -0.003694 0.000001 -0.000004 -0.000004 4.570446 11.014691 -2.160851 -0.000018 0.000010 -0.000021 10.592449 -0.524557 -2.232338 30.181086 -55.244643 16.062925 27.841774 -0.000057 -0.000108 33.033076 -107.274623 43.874195 28.328835 -0.000029 0.000024 0.000018 -0.000091 -0.000001 2.466178 -1.576161 2.681882 58.331926 135.248647 -118.840306 3.217785 -1.872018 1.916531 232.357271 49.171222 69.994945 2.656033 -1.528803 1.514622 235.688081 44.501022 65.557576 2.020895 -1.154070 1.115144 -0.000000 0.000003 0.000001 9.109461 -0.517847 2.259859 -25.465247 -164.087140 243.425183 3.700089 0.000166 -0.000463 -84.355124 -156.277966 -153.877783 2.850045 0.000098 0.000251 -307.099539 -16.874215 -351.559945 2.774871 -0.000032 0.000000 -0.000000 0.000004 0.000000 9.533547 0.000298 0.000035 156.094357 -11.416917 50.512114 3.700051 0.000203 -0.000368 -88.350655 -169.277878 -168.969304 2.950034 0.000082 -0.000186 -128.572369 -170.358346 -175.347062 2.952858 -0.000015 0.000066 0.000000 -0.000001 0.000000 9.104684 -0.042834 -1.865071 -200.734397 -13.623184 -293.706932 3.149987 0.000242 -0.000147 89.504868 0.748919 359.259044 2.949981 0.000122 -0.000106 49.400101 4.410788 -2.028923 2.644338 0.000032 0.000046 -0.000000 0.000002 0.000001 8.077923 -0.486761 -3.806230 -197.676931 -16.712510 89.843584 3.599959 0.000294 0.014543 99.030776 0.183816 -359.720245 2.099957 0.000162 0.007517 66.119578 8.995202 -5.645129 2.125500 0.000000 0.007513 0.000003 0.000001 0.000001 -8.207786 -6.751667 -1.599560 -0.077001 -0.000003 0.000080 -0.000002 -44.370110 0.345938 0.153719 -0.000000 -0.000000 0.000000 -44.423679 -3.043532 -0.076700 0.000000 -0.000002 -0.000006 -8.728667 10.710559 -0.000009 -0.000000 -0.000000 -0.000001 -0.000679 9.278123 0.000000 -0.000000 -0.000000 8.207792 -6.751710 -1.599556 -0.074518 -0.000003 0.000081 -0.000002 -44.370014 0.346960 0.148822 0.000002 0.000000 -0.000001 -44.423664 -3.044403 -0.074314 0.000000 -0.000002 -0.000004 -8.728671 10.710558 0.000007 -0.000000 -0.000000 0.000000 -0.000680 9.278137 -0.000000 0.000000 -0.000001 
0.000006 104.270477 1.554256 0.000010 0.000003 -0.000113 -0.000005 10.181587 0.131522 0.000001 -0.000003 0.000084 -0.000000 9.893967 -1.470711 0.000001 0.000000 -0.000000 -0.000000 9.220802 -1.370642 0.000000 -0.000000 -0.000000 0.000001 16.740433 -2.049030 0.000000 -0.000000 -0.000000 0.000000 9.617859 1.685014 0.000000 0.000000 0.000000 0.000002 22.037384 7.501101 0.000000 -0.000000 0.000000 -4.569968 11.014880 -2.160881 0.000008 0.000001 -0.000038 -10.592882 -0.524710 -2.231961 77.466708 16.490045 -13.259372 -27.841503 0.000006 0.000533 -48.119451 114.241792 69.265816 -28.328846 0.000005 0.000021 -0.000317 -0.000048 0.000008 -2.464431 -1.573710 2.682297 -52.828443 -169.200424 -23.968992 -3.215243 -1.872515 1.924634 148.693450 32.828488 20.290363 -2.654960 -1.527878 1.513063 147.115581 27.624473 -29.506796 -2.018830 -1.151998 1.108061 0.000001 -0.000003 0.000000 -9.108376 -0.517538 2.260104 94.025812 14.836773 -15.953582 -3.700075 0.000325 0.001474 91.392774 12.716889 -13.003260 -2.850090 0.000355 -0.000288 90.260151 10.463093 -10.509525 -2.772169 -0.000001 -0.000017 -0.000003 0.000002 -0.000004 -9.532586 0.000270 0.000213 89.179109 13.925656 -13.866904 -3.700068 0.000324 0.003952 88.661934 10.948199 -10.605645 -2.950055 0.000324 -0.001825 90.847520 10.535717 -10.684710 -2.946632 0.000004 -0.000155 -0.000002 0.000000 -0.000000 -9.103702 -0.042757 -1.864896 88.112869 16.649518 -16.074099 -3.379321 0.000304 -0.000841 87.124841 8.524743 -8.125050 -2.889747 0.000354 0.000620 93.912526 5.686112 -6.135448 -2.638809 -0.000027 0.000941 0.000005 -0.000001 0.000000 -8.076771 -0.486389 -3.806031 81.945645 18.083604 -15.603724 -3.600034 0.000276 -0.003565 81.464506 6.974585 -5.707345 -2.100017 0.000324 -0.005531 84.722069 2.827155 -2.386250 -2.115782 -0.000055 -0.003678 0.000000 -0.000000 -0.000004 4.570446 11.014691 -2.160851 -0.000018 0.000010 -0.000021 10.592449 -0.524567 -2.232335 24.983504 -56.616456 13.609931 27.841805 -0.000029 -0.000132 15.457592 -105.035004 20.072871 28.328831 -0.000013 0.000019 0.000022 -0.000089 0.000000 2.466160 -1.576149 2.681869 95.889579 137.448842 -145.700462 3.217734 -1.872058 1.916542 218.936318 56.070355 86.473829 2.655916 -1.528830 1.514579 194.379862 51.923142 110.930537 2.020895 -1.154072 1.115147 0.000001 0.000003 0.000004 9.109298 -0.518022 2.259930 -5.650698 -162.352422 324.650229 3.699987 -0.000029 -0.000243 -189.506617 -146.698762 -182.845981 2.850031 0.000012 0.000384 -362.580292 -15.727356 -360.356573 2.774888 -0.000016 -0.000024 -0.000001 0.000000 -0.000000 9.533126 0.000263 0.000144 187.689227 -10.101705 -105.517899 3.700018 -0.000030 -0.000177 -188.613857 -164.597655 -181.167134 2.950013 -0.000029 -0.000053 -176.634621 -168.978047 -179.674902 2.952876 -0.000031 0.000054 -0.000003 -0.000001 -0.000001 9.104305 -0.042680 -1.864973 -170.438491 -6.241228 -426.203449 3.149997 0.000000 0.000021 -10.603794 23.442048 362.205587 2.949988 -0.000013 0.000009 0.778673 8.324248 -0.056765 2.644315 0.000017 0.000048 0.000001 -0.000002 0.000001 8.077741 -0.486452 -3.806139 -165.703422 -1.244862 -13.181986 3.599927 -0.000002 0.014705 -11.326360 36.323793 -356.450197 2.099983 -0.000003 0.007650 5.139359 22.706969 -1.096682 2.125493 -0.000001 0.007516 0.000000 0.000007 0.000001 -8.207786 -6.751667 -1.599560 -0.077001 -0.000003 0.000080 -0.000002 -44.370110 0.345938 0.153719 -0.000000 -0.000000 0.000000 -44.423679 -3.043532 -0.076700 0.000000 -0.000002 -0.000006 -8.728667 10.710559 -0.000009 -0.000000 -0.000000 -0.000001 -0.000679 9.278123 0.000000 -0.000000 -0.000000 8.207792 -6.751710 -1.599556 -0.074518 -0.000003 0.000081 -0.000002 -44.370014 0.346960 0.148822 0.000002 0.000000 -0.000001 -44.423664 -3.044403 -0.074314 0.000000 -0.000002 -0.000004 -8.728671 10.710558 0.000007 -0.000000 -0.000000 0.000000 -0.000680 9.278137 -0.000000 0.000000 -0.000001 
0.000006 104.270477 1.554256 0.000010 0.000003 -0.000113 -0.000005 10.181587 0.131522 0.000001 -0.000003 0.000084 -0.000000 9.893967 -1.470711 0.000001 0.000000 -0.000000 -0.000000 9.220802 -1.370642 0.000000 -0.000000 -0.000000 0.000001 16.740433 -2.049030 0.000000 -0.000000 -0.000000 0.000000 9.617859 1.685014 0.000000 0.000000 0.000000 0.000002 22.037384 7.501101 0.000000 -0.000000 0.000000 -4.569968 11.014880 -2.160881 0.000008 0.000001 -0.000038 -10.592879 -0.524724 -2.231950 76.333634 18.930926 -14.931222 -27.841511 0.000010 0.000530 -48.589160 111.545650 67.131901 -28.328810 0.000022 0.000021 -0.000321 -0.000048 0.000009 -2.464418 -1.573717 2.682305 -51.483125 -166.576675 -19.663083 -3.215275 -1.872522 1.924615 148.743611 33.011220 21.666139 -2.654962 -1.527881 1.513061 147.310446 27.499767 -30.536741 -2.018823 -1.152002 1.108069 -0.000007 -0.000004 0.000004 -9.108365 -0.517554 2.260111 94.906223 15.325355 -16.728974 -3.700055 0.000326 0.001499 91.692537 13.166982 -13.533998 -2.850076 0.000350 -0.000290 90.111041 10.836366 -10.856337 -2.772152 0.000001 -0.000015 0.000002 -0.000001 0.000002 -9.532577 0.000277 0.000228 89.719931 14.506171 -14.575730 -3.700072 0.000334 0.003945 89.393707 11.380827 -11.168885 -2.950066 0.000341 -0.001835 91.321897 10.841869 -11.086175 -2.946613 -0.000011 -0.000158 -0.000000 -0.000001 0.000001 -9.103702 -0.042751 -1.864885 88.318526 17.163330 -16.630532 -3.379322 0.000318 -0.000830 88.098997 8.821351 -8.551115 -2.889757 0.000356 0.000622 94.579050 5.864717 -6.400823 -2.638812 -0.000027 0.000938 0.000003 -0.000003 0.000001 -8.076740 -0.486391 -3.806044 81.566652 18.754019 -16.082343 -3.600036 0.000282 -0.003556 81.964927 7.431996 -6.153721 -2.100009 0.000323 -0.005535 85.265561 3.092048 -2.652162 -2.115775 -0.000055 -0.003678 0.000000 0.000000 -0.000004 4.570446 11.014691 -2.160851 -0.000018 0.000010 -0.000021 10.592442 -0.524575 -2.232324 20.146804 -55.430247 10.663696 27.841827 -0.000006 -0.000134 3.719315 -106.324168 4.963610 28.328842 -0.000028 0.000023 0.000020 -0.000087 -0.000001 2.466159 -1.576174 2.681874 61.377480 128.316811 -117.524251 3.217620 -1.872054 1.916537 155.870955 46.120217 156.866195 2.655686 -1.528574 1.514536 123.205397 -3.010857 239.853212 2.020883 -1.154063 1.115141 0.000001 0.000005 0.000006 9.109406 -0.517987 2.259924 -5.115048 -172.264187 292.927443 3.699986 0.000010 -0.000165 -224.139529 -166.266257 -185.594285 2.850016 0.000012 0.000425 -376.284383 -8.093637 -361.159803 2.774864 -0.000015 -0.000022 -0.000002 -0.000004 0.000000 9.533493 0.000363 0.000128 187.704240 1.912474 27.969490 3.700006 0.000040 -0.000040 -233.715686 -175.164545 -182.448778 2.950026 -0.000010 0.000009 -191.236008 -169.240367 -181.061512 2.952877 -0.000029 0.000070 -0.000000 0.000006 -0.000002 9.104614 -0.042683 -1.864970 -166.425632 3.620988 -330.267896 3.150026 0.000041 0.000190 -55.449829 13.625141 367.184413 2.949990 0.000009 0.000076 -9.163737 1.551034 0.124169 2.644327 0.000029 0.000062 0.000001 -0.000001 -0.000001 8.077905 -0.486567 -3.806157 -166.481449 5.288585 37.870704 3.599978 0.000032 0.014835 -53.026044 26.757181 -346.785916 2.099985 -0.000002 0.007701 -12.636266 17.281326 1.821766 2.125519 -0.000003 0.007505 0.000000 -0.000000 0.000000 -8.207786 -6.751667 -1.599560 -0.077001 -0.000003 0.000080 -0.000002 -44.370110 0.345938 0.153719 -0.000000 -0.000000 0.000000 -44.423679 -3.043532 -0.076700 0.000000 -0.000002 -0.000006 -8.728667 10.710559 -0.000009 -0.000000 -0.000000 -0.000001 -0.000679 9.278123 0.000000 -0.000000 -0.000000 8.207792 -6.751710 -1.599556 -0.074518 -0.000003 0.000081 -0.000002 -44.370014 0.346960 0.148822 0.000002 0.000000 -0.000001 -44.423664 -3.044403 -0.074314 0.000000 -0.000002 -0.000004 -8.728671 10.710558 0.000007 -0.000000 -0.000000 0.000000 -0.000680 9.278137 -0.000000 0.000000 -0.000001 
